<svg id="Layer_1" data-name="Layer 1" xmlns="http://www.w3.org/2000/svg" viewBox="0 0 225.81 30.04"><defs><style>.cls-1{fill:#fff}.cls-2{fill:#636466}</style></defs><path class="cls-1" transform="rotate(-45 3.496 13.172)" d="M1.02 10.7h4.94v4.94H1.02z"/><path class="cls-1" transform="rotate(-45 218.621 13.184)" d="M216.15 10.71h4.94v4.94h-4.94z"/><path class="cls-2" d="M28.6 13.3h1.28V8.21h2V6.94H28.6v6.36zM37.71 14.23V6.48A2.79 2.79 0 0 0 36.14 4a2.73 2.73 0 0 1 .29 1.21V13a2.73 2.73 0 0 1-1 2.15 3.18 3.18 0 0 1 1 2.26V26a2.83 2.83 0 0 1-2.79 2.79h-8.28V30h9.56a2.83 2.83 0 0 0 2.79-2.79v-8.57a3.18 3.18 0 0 0-1-2.26 2.73 2.73 0 0 0 1-2.15Z"/><path class="cls-2" d="M28.6 24.21h1.28v-5.12h2v-1.28H28.6v6.4zM48.78 24.21h1.27v-16h2V6.94h-3.27v17.27z"/><path class="cls-2" d="M56.31 4a2.7 2.7 0 0 1 .29 1.21V26a2.83 2.83 0 0 1-2.79 2.79H47a2.72 2.72 0 0 1-1.21-.29 2.79 2.79 0 0 0 2.53 1.5h6.78a2.83 2.83 0 0 0 2.79-2.79V6.48A2.79 2.79 0 0 0 56.31 4ZM68.95 13.3h1.28V8.21h2V6.94h-3.28v6.36zM76.44 18.82A2.73 2.73 0 0 0 78 16.34V6.48A2.78 2.78 0 0 0 76.45 4a2.78 2.78 0 0 1 .29 1.23v9.86a2.73 2.73 0 0 1-1.58 2.48L77 28.77h-3.41L73.8 30h4.52ZM70.69 17.81h-1.74v10.96h-3.24v1.27h4.52V19.09h.67l-.21-1.28zM88.53 24.21h1.27v-16h2V6.94h-3.27v17.27z"/><path class="cls-2" d="M96.06 4a2.71 2.71 0 0 1 .29 1.21V26a2.83 2.83 0 0 1-2.79 2.79h-6.77a2.72 2.72 0 0 1-1.21-.29 2.79 2.79 0 0 0 2.49 1.5h6.78a2.83 2.83 0 0 0 2.79-2.79V6.48A2.78 2.78 0 0 0 96.06 4ZM108.7 24.21h1.28v-16h2V6.94h-3.28v17.27z"/><path class="cls-2" d="M116.24 4a2.73 2.73 0 0 1 .29 1.21V26a2.83 2.83 0 0 1-2.79 2.79h-8.29V30H115a2.83 2.83 0 0 0 2.78-2.79V6.48A2.79 2.79 0 0 0 116.24 4ZM129.1 3.69v25.08h-3.24v1.27h4.52V3.69h-1.28zM149.21 3.69v25.08h-3.61l.36 1.27h4.52V3.69h-1.27zM141.38 17.25v11.52h-3.25v1.27h4.52v-8.36l-1.27-4.43zM161.09 19.09h3.73v-1.28h-5a2.74 2.74 0 0 1-1.22-.29 2.77 2.77 0 0 0 2.49 1.57ZM162.82 20.78l-1.27.3v3.13h1.27v-3.43zM169.09 4a2.71 2.71 0 0 1 .29 1.21v5.34l-3.28.76v1.57l4.55-1.05V6.48A2.79 2.79 0 0 0 169.09 4Z"/><path class="cls-2" d="M169.09 14.87a2.72 2.72 0 0 1 .29 1.21V26a2.83 2.83 0 0 1-2.79 2.79h-6.77a2.72 2.72 0 0 1-1.21-.29 2.79 2.79 0 0 0 2.48 1.5h6.77a2.83 2.83 0 0 0 2.78-2.79v-9.9a2.78 2.78 0 0 0-1.55-2.44ZM161.55 6.94v6.36h1.27V8.21h2.01V6.94h-3.28zM182.14 17.81h-.41v10.96h-3.25v1.27H183v-9.49l-.86-2.74zM191.39 3.69h-1.68l-3.8 11.86 4.21 13.22h-3.67l.35 1.12.04.15h4.55l-4.21-13.21 4.21-13.14zM202.02 3.69v25.08h-3.25v1.27h4.52V3.69h-1.27z"/><path class="cls-2" transform="rotate(-45.01 223.423 17.98)" d="M220.96 17.08h4.94v1.8h-4.94z"/><path class="cls-2" transform="rotate(-45 8.295 17.974)" d="M5.83 17.08h4.94v1.8H5.83z"/><path class="cls-1" d="M34 10.54a2.73 2.73 0 0 1-1 2.15 3.18 3.18 0 0 1 1 2.26v8.62a2.83 2.83 0 0 1-2.79 2.79h-9.54V0h9.56A2.8 2.8 0 0 1 34 2.79Zm-4.55-6h-3.27v6.36h3.28Zm0 10.88h-3.27v6.4h3.28ZM51.4 0a2.8 2.8 0 0 1 2.79 2.79v20.77a2.83 2.83 0 0 1-2.79 2.79h-6.77a2.8 2.8 0 0 1-2.79-2.79V2.79A2.78 2.78 0 0 1 44.63 0Zm-1.77 4.52h-3.27v17.27h3.28ZM70.11 26.35l-1.84-11h-1.74v11H62V0h9.56a2.77 2.77 0 0 1 2.75 2.79v9.86a2.73 2.73 0 0 1-1.58 2.48l1.88 11.22Zm-.3-21.83h-3.28v6.36h3.27ZM91.15 0a2.8 2.8 0 0 1 2.78 2.79v20.77a2.83 2.83 0 0 1-2.78 2.79h-6.77a2.8 2.8 0 0 1-2.79-2.79V2.79A2.78 2.78 0 0 1 84.38 0Zm-1.77 4.52h-3.27v17.27h3.28ZM111.33 0a2.8 2.8 0 0 1 2.78 2.79v20.77a2.83 2.83 0 0 1-2.78 2.79h-9.56V0Zm-1.77 4.52h-3.27v17.27h3.27ZM122.17 0h4.52v26.35h-4.52ZM146.78 0v26.35h-4.52L139 14.83v11.52h-4.52V0h4.48l3.31 10.8V0ZM164.18 10.88a2.8 2.8 0 0 1 2.82 2.78v9.9a2.83 2.83 0 0 1-2.79 2.79h-6.81a2.8 2.8 0 0 1-2.78-2.79v-5.42l4.52-1.05v4.71h3.27v-6.4h-5a2.78 2.78 0 0 1-2.78-2.79V2.79A2.78 2.78 0 0 1 157.4 0h6.78A2.8 2.8 0 0 1 167 2.79v5.34l-4.6 1.05V4.52h-3.27v6.36ZM183.48 13.14l4.22 13.21h-4.55v-.15l-3.39-10.8h-.42v11h-4.52V0h4.52v10.88h.34L183.11 0h4.59ZM195.08 0h4.52v26.35h-4.52Z"/></svg>