<svg xmlns="http://www.w3.org/2000/svg" width="15" height="17"  fill="#000"><path fill-rule="evenodd" d="M15.002 6.97v8.61c0 1.305-1.247 1.418-1.247 1.418H1.187c-1.572 0-1.139-1.418-1.139-1.418V6.53c0-1.361 1.258-1.079 1.258-1.079h.63c0-3.152 2.442-5.453 5.453-5.453 3.012 0 5.615 2.301 5.615 5.453l.751-.013c1.355 0 1.247 1.532 1.247 1.532Zm-8.463 4.501c.199.071-.647 3.535-.647 3.535l2.64-.019s-.764-3.5-.661-3.541c.738-.295 1.263-1.043 1.263-1.919 0-1.134-.878-2.054-1.962-2.054-1.083 0-1.961.92-1.961 2.054 0 .902.556 1.668 1.328 1.944Zm.996-10.175c-2.364 0-4.282 1.667-4.282 4.142h8.564c0-2.475-1.917-4.142-4.282-4.142Z"/></svg>