<svg width="23" height="26" fill="#fff" xmlns="http://www.w3.org/2000/svg"><path d="M23 18a6.92 6.92 0 0 1-2.94 5.83 10.21 10.21 0 0 1-3.49 1.64 19.89 19.89 0 0 1-4.83.49H0V0h10.44a38.3 38.3 0 0 1 4.76.21 10 10 0 0 1 3 .93 5.22 5.22 0 0 1 2.28 2A5.57 5.57 0 0 1 21.21 6a5.56 5.56 0 0 1-1 3.33 6.71 6.71 0 0 1-2.91 2.24v.14a7.66 7.66 0 0 1 4.18 2.1A5.76 5.76 0 0 1 23 18ZM14.12 7.35a2.77 2.77 0 0 0-.34-1.29 2.06 2.06 0 0 0-1.18-1 5.92 5.92 0 0 0-1.89-.31H6.9v5.5H8q1.64 0 2.8-.05a5.16 5.16 0 0 0 1.82-.35 2.21 2.21 0 0 0 1.23-1 3.54 3.54 0 0 0 .27-1.5Zm1.68 10.58a3.17 3.17 0 0 0-.5-1.93 3 3 0 0 0-1.68-1 9.06 9.06 0 0 0-2.23-.24H6.9v6.48h4.68a6.28 6.28 0 0 0 2.32-.45 2.83 2.83 0 0 0 1.49-1.16 3.36 3.36 0 0 0 .41-1.7Z"/></svg>